<svg width="73" height="19" viewBox="0 0 73 19" fill="none" xmlns="http://www.w3.org/2000/svg">
<path d="M0.628 2.6H4.346V18H0.628V2.6ZM2.96 5.658V2.6H5.974C7.27933 2.6 8.372 2.80533 9.252 3.216C10.1467 3.612 10.8213 4.184 11.276 4.932C11.7307 5.68 11.958 6.582 11.958 7.638C11.958 8.66467 11.7307 9.55933 11.276 10.322C10.8213 11.07 10.1467 11.6493 9.252 12.06C8.372 12.456 7.27933 12.654 5.974 12.654H2.96V9.596H5.974C6.722 9.596 7.30867 9.42733 7.734 9.09C8.15933 8.75267 8.372 8.26867 8.372 7.638C8.372 6.99267 8.15933 6.50133 7.734 6.164C7.30867 5.82667 6.722 5.658 5.974 5.658H2.96ZM12.745 12.94C12.745 11.8693 12.9943 10.938 13.493 10.146C13.9917 9.354 14.681 8.738 15.561 8.298C16.441 7.858 17.431 7.638 18.531 7.638C19.631 7.638 20.6137 7.858 21.479 8.298C22.359 8.738 23.0483 9.354 23.547 10.146C24.0603 10.938 24.317 11.8693 24.317 12.94C24.317 13.996 24.0603 14.92 23.547 15.712C23.0483 16.504 22.359 17.12 21.479 17.56C20.6137 18 19.631 18.22 18.531 18.22C17.431 18.22 16.441 18 15.561 17.56C14.681 17.12 13.9917 16.504 13.493 15.712C12.9943 14.92 12.745 13.996 12.745 12.94ZM16.155 12.94C16.155 13.468 16.265 13.9227 16.485 14.304C16.705 14.6707 16.991 14.9567 17.343 15.162C17.695 15.3673 18.091 15.47 18.531 15.47C18.9563 15.47 19.345 15.3673 19.697 15.162C20.0637 14.9567 20.3497 14.6707 20.555 14.304C20.775 13.9227 20.885 13.468 20.885 12.94C20.885 12.412 20.775 11.9573 20.555 11.576C20.3497 11.1947 20.0637 10.9013 19.697 10.696C19.345 10.4907 18.9563 10.388 18.531 10.388C18.091 10.388 17.695 10.4907 17.343 10.696C16.991 10.9013 16.705 11.1947 16.485 11.576C16.265 11.9573 16.155 12.412 16.155 12.94ZM26.3156 0.839999H29.6596V18H26.3156V0.839999ZM32.0473 4.074C32.0473 3.546 32.2379 3.12067 32.6193 2.798C33.0006 2.46067 33.4553 2.292 33.9833 2.292C34.5259 2.292 34.9806 2.46067 35.3473 2.798C35.7286 3.12067 35.9193 3.546 35.9193 4.074C35.9193 4.602 35.7286 5.03467 35.3473 5.372C34.9806 5.70933 34.5259 5.878 33.9833 5.878C33.4553 5.878 33.0006 5.70933 32.6193 5.372C32.2379 5.03467 32.0473 4.602 32.0473 4.074ZM32.3773 7.88H35.5893V18H32.3773V7.88ZM37.1373 7.88H43.9133V10.63H37.1373V7.88ZM38.9193 4.36H42.1093V18H38.9193V4.36ZM45.1313 4.074C45.1313 3.546 45.3219 3.12067 45.7033 2.798C46.0846 2.46067 46.5393 2.292 47.0673 2.292C47.6099 2.292 48.0646 2.46067 48.4313 2.798C48.8126 3.12067 49.0033 3.546 49.0033 4.074C49.0033 4.602 48.8126 5.03467 48.4313 5.372C48.0646 5.70933 47.6099 5.878 47.0673 5.878C46.5393 5.878 46.0846 5.70933 45.7033 5.372C45.3219 5.03467 45.1313 4.602 45.1313 4.074ZM45.4613 7.88H48.6733V18H45.4613V7.88ZM51.3873 0.839999H54.5773V18H51.3873V0.839999ZM58.2513 7.88H62.2333L57.8993 12.06L62.6733 18H58.7573L53.9173 12.06L58.2513 7.88ZM64.6566 14.326C65.1699 14.7513 65.6319 15.0887 66.0426 15.338C66.4679 15.5727 66.8419 15.7413 67.1646 15.844C67.4873 15.932 67.7659 15.976 68.0006 15.976C68.3379 15.976 68.5873 15.9027 68.7486 15.756C68.9099 15.6093 68.9906 15.4187 68.9906 15.184C68.9906 14.964 68.9246 14.7807 68.7926 14.634C68.6606 14.4727 68.4333 14.3187 68.1106 14.172C67.8026 14.0253 67.3773 13.8713 66.8346 13.71C66.3506 13.534 65.8886 13.3287 65.4486 13.094C65.0233 12.8447 64.6713 12.5147 64.3926 12.104C64.1139 11.6933 63.9746 11.1653 63.9746 10.52C63.9746 9.904 64.1359 9.38333 64.4586 8.958C64.7959 8.53267 65.2433 8.21 65.8006 7.99C66.3726 7.77 67.0253 7.66 67.7586 7.66C68.3453 7.66 68.8879 7.726 69.3866 7.858C69.8999 7.99 70.3766 8.166 70.8166 8.386C71.2713 8.606 71.6966 8.86267 72.0926 9.156L70.9046 11.312C70.4793 10.916 69.9953 10.5933 69.4526 10.344C68.9099 10.08 68.4113 9.948 67.9566 9.948C67.6486 9.948 67.4139 10.0067 67.2526 10.124C67.1059 10.2413 67.0326 10.3953 67.0326 10.586C67.0326 10.806 67.1206 10.9893 67.2966 11.136C67.4873 11.2827 67.7513 11.422 68.0886 11.554C68.4406 11.6713 68.8659 11.8253 69.3646 12.016C69.8926 12.2067 70.3766 12.4267 70.8166 12.676C71.2713 12.9253 71.6306 13.2407 71.8946 13.622C72.1733 14.0033 72.3126 14.5093 72.3126 15.14C72.3126 16.2253 71.9753 17.0467 71.3006 17.604C70.6406 18.1467 69.7093 18.418 68.5066 18.418C67.7733 18.418 67.0913 18.33 66.4606 18.154C65.8446 17.9927 65.2726 17.7727 64.7446 17.494C64.2166 17.2007 63.7253 16.878 63.2706 16.526L64.6566 14.326Z" fill="white"/>
</svg>
